<?xml version="1.0" encoding="utf-8"?>
<!-- Generator: Adobe Illustrator 16.0.0, SVG Export Plug-In . SVG Version: 6.00 Build 0)  -->
<!DOCTYPE svg PUBLIC "-//W3C//DTD SVG 1.1//EN" "http://www.w3.org/Graphics/SVG/1.1/DTD/svg11.dtd">
<svg version="1.1" id="svg2" xmlns:svg="http://www.w3.org/2000/svg"
	 xmlns="http://www.w3.org/2000/svg" xmlns:xlink="http://www.w3.org/1999/xlink" x="0px" y="0px" width="180px" height="161.839px"
	 viewBox="-71.495 -38.346 180 161.839" enable-background="new -71.495 -38.346 180 161.839" xml:space="preserve">
<g id="layer1">
	<path id="path2417" fill="#1ABC9C" d="M11.415,114.434c-3.874-4.342-13.548-12.805-21.497-18.809
		c-23.553-17.787-26.759-20.361-36.322-29.167C-64.034,50.225-71.521,33.915-71.495,11.8c0.013-10.795,0.748-14.955,3.771-21.318
		c5.129-10.796,12.685-18.818,22.344-23.725c6.842-3.475,10.216-5.019,21.641-5.082c11.951-0.066,14.467,1.327,21.498,5.189
		c8.557,4.701,17.364,14.748,19.185,21.884l1.125,4.408l2.773-6.07c15.67-34.305,65.699-33.792,83.11,0.853
		c5.523,10.99,6.129,34.457,1.232,47.675c-6.389,17.244-18.388,30.39-46.126,50.535c-18.191,13.211-38.781,33.2-40.214,36.008
		C17.179,125.416,18.763,122.667,11.415,114.434z"/>
	<g id="g2221" transform="translate(129.28571,-64.285714)">
	</g>
</g>
</svg>
