<?xml version="1.0" encoding="utf-8"?>
<!-- Generator: Adobe Illustrator 16.0.0, SVG Export Plug-In . SVG Version: 6.00 Build 0)  -->
<!DOCTYPE svg PUBLIC "-//W3C//DTD SVG 1.1//EN" "http://www.w3.org/Graphics/SVG/1.1/DTD/svg11.dtd">
<svg version="1.1" id="SVGs" xmlns="http://www.w3.org/2000/svg" xmlns:xlink="http://www.w3.org/1999/xlink" x="0px" y="0px"
	 width="180.596px" height="168.217px" viewBox="0 0 180.596 168.217" enable-background="new 0 0 180.596 168.217"
	 xml:space="preserve">
<path fill="#A3CF62" d="M95.038,112.884c9.026,22.868,30.627,36.432,57.665,36.636c8.804,0.066,18.185-1.283,27.894-4.188
	c-14.917-29.715-33.726-41.414-51.338-43.636c23.5-11.395,42.711-35.05,50.942-66.337c-41.944,4.136-65.049,21.49-76.61,40.679
	C104.45,53.651,94.651,26.467,61.852,0c-11.037,32.922-6.673,65.432,9.311,88.208c-6.654-3.445-14.356-5.633-23.066-5.753
	c-13.615-0.188-29.696,4.672-48.097,17.668c16.903,16.766,36.245,25.101,54.355,25.1c12.083-0.001,23.618-3.712,33.513-11.107
	l0,0.002c-11.477,11.477,2.461,54.141,13.233,54.099c0.149-0.001,0.298-0.01,0.446-0.027c4.737-0.55,6.63-2.258,6.65-4.342
	c0.026-2.679-3.045-5.981-7.153-8.246C93.741,151.574,89.032,122.033,95.038,112.884L95.038,112.884z"/>
</svg>
