<?xml version="1.0" encoding="utf-8"?>
<!-- Generator: Adobe Illustrator 16.0.0, SVG Export Plug-In . SVG Version: 6.00 Build 0)  -->
<!DOCTYPE svg PUBLIC "-//W3C//DTD SVG 1.1//EN" "http://www.w3.org/Graphics/SVG/1.1/DTD/svg11.dtd">
<svg version="1.1" id="Elements" xmlns="http://www.w3.org/2000/svg" xmlns:xlink="http://www.w3.org/1999/xlink" x="0px" y="0px"
	 width="180.5px" height="150.022px" viewBox="0 7.098 180.5 150.022" enable-background="new 0 7.098 180.5 150.022"
	 xml:space="preserve">
<path fill="#B4C7E7" d="M180.499,17.35c0.021,2.323-0.42,4.689-1.018,6.829c-2.044,7.29-6.308,13.893-11.218,19.501
	c6.349,9.296,9.633,20.678,10.608,31.884c0.212,2.431,0.319,4.873,0.314,7.312c-0.021,10.994-2.286,21.944-7.289,31.754
	c-14.019,27.484-44.83,39.335-73.45,41.943c-15.701,1.431-31.989,0.819-47.306-3.195c-12.365-3.241-24.527-9.076-33.301-18.724
	c0.004,0.007,0.008,0.015,0.013,0.022C6.364,122.935,0,112.396,0,101.243c0-7.947,4.198-9.385,7.49-6.93
	c0.563-2.069,1.27-4.105,2.135-6.092c6.288-14.432,19.067-25.677,33.465-31.08c14.93-5.603,32.156-4.5,46.877,1.334
	c7.077,2.804,13.621,6.852,19.505,11.739c2.82,2.343,5.488,4.871,8.062,7.493c2.672,2.721,5.122,5.924,8.067,8.336
	c5.94,4.865,15.95,4.819,21.353-0.876c5.046-5.315,5.482-14.634,3.613-21.41c-2.174-7.868-9.178-11.191-16.474-12.731
	c-4.142-0.876-8.37-1.229-12.508-2.109c-3.761-0.826-8.052-2.477-8.991-6.784l-0.037-0.177c-1.422-7.794,7.191-13.018,13.198-15.216
	c7.006-2.565,15.36-3.106,22.116,0.507c2.746-8.847,10.138-16.54,18.826-19.345c4.255-1.373,9.363-1.331,12.046,2.881
	C179.996,12.748,180.479,15.027,180.499,17.35z M139.994,65.634c-2.438-2.495-5.913-3.956-9.144-5.008
	c-3.664-1.19-7.507-1.895-11.348-2.103c3.375,3.098,5.344,7.195,7.412,11.233c1.805,3.527,4.507,8.229,9.064,7.753
	C141.128,76.972,143.562,69.282,139.994,65.634z"/>
</svg>
